%TF.GenerationSoftware,KiCad,Pcbnew,7.0.7*%
%TF.CreationDate,2023-08-19T18:09:12-07:00*%
%TF.ProjectId,dci_lvi_inline_sm,6463695f-6c76-4695-9f69-6e6c696e655f,rev?*%
%TF.SameCoordinates,Original*%
%TF.FileFunction,Legend,Bot*%
%TF.FilePolarity,Positive*%
%FSLAX46Y46*%
G04 Gerber Fmt 4.6, Leading zero omitted, Abs format (unit mm)*
G04 Created by KiCad (PCBNEW 7.0.7) date 2023-08-19 18:09:12*
%MOMM*%
%LPD*%
G01*
G04 APERTURE LIST*
%ADD10C,0.150000*%
G04 APERTURE END LIST*
D10*
X157343268Y-77834295D02*
X157343268Y-78405723D01*
X157343268Y-78405723D02*
X157381363Y-78520009D01*
X157381363Y-78520009D02*
X157457554Y-78596200D01*
X157457554Y-78596200D02*
X157571839Y-78634295D01*
X157571839Y-78634295D02*
X157648030Y-78634295D01*
X156581363Y-78634295D02*
X156962315Y-78634295D01*
X156962315Y-78634295D02*
X156962315Y-77834295D01*
X155857553Y-78558104D02*
X155895649Y-78596200D01*
X155895649Y-78596200D02*
X156009934Y-78634295D01*
X156009934Y-78634295D02*
X156086125Y-78634295D01*
X156086125Y-78634295D02*
X156200411Y-78596200D01*
X156200411Y-78596200D02*
X156276601Y-78520009D01*
X156276601Y-78520009D02*
X156314696Y-78443819D01*
X156314696Y-78443819D02*
X156352792Y-78291438D01*
X156352792Y-78291438D02*
X156352792Y-78177152D01*
X156352792Y-78177152D02*
X156314696Y-78024771D01*
X156314696Y-78024771D02*
X156276601Y-77948580D01*
X156276601Y-77948580D02*
X156200411Y-77872390D01*
X156200411Y-77872390D02*
X156086125Y-77834295D01*
X156086125Y-77834295D02*
X156009934Y-77834295D01*
X156009934Y-77834295D02*
X155895649Y-77872390D01*
X155895649Y-77872390D02*
X155857553Y-77910485D01*
X155286125Y-77834295D02*
X155286125Y-78405723D01*
X155286125Y-78405723D02*
X155324220Y-78520009D01*
X155324220Y-78520009D02*
X155400411Y-78596200D01*
X155400411Y-78596200D02*
X155514696Y-78634295D01*
X155514696Y-78634295D02*
X155590887Y-78634295D01*
X154524220Y-78634295D02*
X154905172Y-78634295D01*
X154905172Y-78634295D02*
X154905172Y-77834295D01*
X153800410Y-78558104D02*
X153838506Y-78596200D01*
X153838506Y-78596200D02*
X153952791Y-78634295D01*
X153952791Y-78634295D02*
X154028982Y-78634295D01*
X154028982Y-78634295D02*
X154143268Y-78596200D01*
X154143268Y-78596200D02*
X154219458Y-78520009D01*
X154219458Y-78520009D02*
X154257553Y-78443819D01*
X154257553Y-78443819D02*
X154295649Y-78291438D01*
X154295649Y-78291438D02*
X154295649Y-78177152D01*
X154295649Y-78177152D02*
X154257553Y-78024771D01*
X154257553Y-78024771D02*
X154219458Y-77948580D01*
X154219458Y-77948580D02*
X154143268Y-77872390D01*
X154143268Y-77872390D02*
X154028982Y-77834295D01*
X154028982Y-77834295D02*
X153952791Y-77834295D01*
X153952791Y-77834295D02*
X153838506Y-77872390D01*
X153838506Y-77872390D02*
X153800410Y-77910485D01*
X153228982Y-77834295D02*
X153228982Y-78405723D01*
X153228982Y-78405723D02*
X153267077Y-78520009D01*
X153267077Y-78520009D02*
X153343268Y-78596200D01*
X153343268Y-78596200D02*
X153457553Y-78634295D01*
X153457553Y-78634295D02*
X153533744Y-78634295D01*
X152467077Y-78634295D02*
X152848029Y-78634295D01*
X152848029Y-78634295D02*
X152848029Y-77834295D01*
X151743267Y-78558104D02*
X151781363Y-78596200D01*
X151781363Y-78596200D02*
X151895648Y-78634295D01*
X151895648Y-78634295D02*
X151971839Y-78634295D01*
X151971839Y-78634295D02*
X152086125Y-78596200D01*
X152086125Y-78596200D02*
X152162315Y-78520009D01*
X152162315Y-78520009D02*
X152200410Y-78443819D01*
X152200410Y-78443819D02*
X152238506Y-78291438D01*
X152238506Y-78291438D02*
X152238506Y-78177152D01*
X152238506Y-78177152D02*
X152200410Y-78024771D01*
X152200410Y-78024771D02*
X152162315Y-77948580D01*
X152162315Y-77948580D02*
X152086125Y-77872390D01*
X152086125Y-77872390D02*
X151971839Y-77834295D01*
X151971839Y-77834295D02*
X151895648Y-77834295D01*
X151895648Y-77834295D02*
X151781363Y-77872390D01*
X151781363Y-77872390D02*
X151743267Y-77910485D01*
X151171839Y-77834295D02*
X151171839Y-78405723D01*
X151171839Y-78405723D02*
X151209934Y-78520009D01*
X151209934Y-78520009D02*
X151286125Y-78596200D01*
X151286125Y-78596200D02*
X151400410Y-78634295D01*
X151400410Y-78634295D02*
X151476601Y-78634295D01*
X150409934Y-78634295D02*
X150790886Y-78634295D01*
X150790886Y-78634295D02*
X150790886Y-77834295D01*
X149686124Y-78558104D02*
X149724220Y-78596200D01*
X149724220Y-78596200D02*
X149838505Y-78634295D01*
X149838505Y-78634295D02*
X149914696Y-78634295D01*
X149914696Y-78634295D02*
X150028982Y-78596200D01*
X150028982Y-78596200D02*
X150105172Y-78520009D01*
X150105172Y-78520009D02*
X150143267Y-78443819D01*
X150143267Y-78443819D02*
X150181363Y-78291438D01*
X150181363Y-78291438D02*
X150181363Y-78177152D01*
X150181363Y-78177152D02*
X150143267Y-78024771D01*
X150143267Y-78024771D02*
X150105172Y-77948580D01*
X150105172Y-77948580D02*
X150028982Y-77872390D01*
X150028982Y-77872390D02*
X149914696Y-77834295D01*
X149914696Y-77834295D02*
X149838505Y-77834295D01*
X149838505Y-77834295D02*
X149724220Y-77872390D01*
X149724220Y-77872390D02*
X149686124Y-77910485D01*
M02*
