%TF.GenerationSoftware,KiCad,Pcbnew,7.0.6*%
%TF.CreationDate,2023-08-04T20:28:31-07:00*%
%TF.ProjectId,dci_lvi_inline,6463695f-6c76-4695-9f69-6e6c696e652e,rev?*%
%TF.SameCoordinates,Original*%
%TF.FileFunction,Legend,Top*%
%TF.FilePolarity,Positive*%
%FSLAX46Y46*%
G04 Gerber Fmt 4.6, Leading zero omitted, Abs format (unit mm)*
G04 Created by KiCad (PCBNEW 7.0.6) date 2023-08-04 20:28:31*
%MOMM*%
%LPD*%
G01*
G04 APERTURE LIST*
%ADD10C,0.100000*%
%ADD11C,0.108000*%
%ADD12C,0.120000*%
G04 APERTURE END LIST*
D10*
X144840133Y-112572761D02*
X144840133Y-111963238D01*
X145144895Y-112267999D02*
X144535371Y-112267999D01*
X156995306Y-115680895D02*
X156728639Y-115299942D01*
X156538163Y-115680895D02*
X156538163Y-114880895D01*
X156538163Y-114880895D02*
X156842925Y-114880895D01*
X156842925Y-114880895D02*
X156919115Y-114918990D01*
X156919115Y-114918990D02*
X156957210Y-114957085D01*
X156957210Y-114957085D02*
X156995306Y-115033276D01*
X156995306Y-115033276D02*
X156995306Y-115147561D01*
X156995306Y-115147561D02*
X156957210Y-115223752D01*
X156957210Y-115223752D02*
X156919115Y-115261847D01*
X156919115Y-115261847D02*
X156842925Y-115299942D01*
X156842925Y-115299942D02*
X156538163Y-115299942D01*
X157642925Y-115642800D02*
X157566734Y-115680895D01*
X157566734Y-115680895D02*
X157414353Y-115680895D01*
X157414353Y-115680895D02*
X157338163Y-115642800D01*
X157338163Y-115642800D02*
X157300067Y-115566609D01*
X157300067Y-115566609D02*
X157300067Y-115261847D01*
X157300067Y-115261847D02*
X157338163Y-115185657D01*
X157338163Y-115185657D02*
X157414353Y-115147561D01*
X157414353Y-115147561D02*
X157566734Y-115147561D01*
X157566734Y-115147561D02*
X157642925Y-115185657D01*
X157642925Y-115185657D02*
X157681020Y-115261847D01*
X157681020Y-115261847D02*
X157681020Y-115338038D01*
X157681020Y-115338038D02*
X157300067Y-115414228D01*
X158366734Y-115680895D02*
X158366734Y-114880895D01*
X158366734Y-115642800D02*
X158290543Y-115680895D01*
X158290543Y-115680895D02*
X158138162Y-115680895D01*
X158138162Y-115680895D02*
X158061972Y-115642800D01*
X158061972Y-115642800D02*
X158023877Y-115604704D01*
X158023877Y-115604704D02*
X157985781Y-115528514D01*
X157985781Y-115528514D02*
X157985781Y-115299942D01*
X157985781Y-115299942D02*
X158023877Y-115223752D01*
X158023877Y-115223752D02*
X158061972Y-115185657D01*
X158061972Y-115185657D02*
X158138162Y-115147561D01*
X158138162Y-115147561D02*
X158290543Y-115147561D01*
X158290543Y-115147561D02*
X158366734Y-115185657D01*
D11*
X149044469Y-113911999D02*
X148701612Y-114151999D01*
X149044469Y-114323428D02*
X148324469Y-114323428D01*
X148324469Y-114323428D02*
X148324469Y-114049142D01*
X148324469Y-114049142D02*
X148358755Y-113980571D01*
X148358755Y-113980571D02*
X148393041Y-113946285D01*
X148393041Y-113946285D02*
X148461612Y-113911999D01*
X148461612Y-113911999D02*
X148564469Y-113911999D01*
X148564469Y-113911999D02*
X148633041Y-113946285D01*
X148633041Y-113946285D02*
X148667326Y-113980571D01*
X148667326Y-113980571D02*
X148701612Y-114049142D01*
X148701612Y-114049142D02*
X148701612Y-114323428D01*
X149044469Y-113226285D02*
X149044469Y-113637714D01*
X149044469Y-113431999D02*
X148324469Y-113431999D01*
X148324469Y-113431999D02*
X148427326Y-113500571D01*
X148427326Y-113500571D02*
X148495898Y-113569142D01*
X148495898Y-113569142D02*
X148530184Y-113637714D01*
D10*
X157429238Y-112074133D02*
X158038762Y-112074133D01*
X144830857Y-115680895D02*
X144564190Y-115299942D01*
X144373714Y-115680895D02*
X144373714Y-114880895D01*
X144373714Y-114880895D02*
X144678476Y-114880895D01*
X144678476Y-114880895D02*
X144754666Y-114918990D01*
X144754666Y-114918990D02*
X144792761Y-114957085D01*
X144792761Y-114957085D02*
X144830857Y-115033276D01*
X144830857Y-115033276D02*
X144830857Y-115147561D01*
X144830857Y-115147561D02*
X144792761Y-115223752D01*
X144792761Y-115223752D02*
X144754666Y-115261847D01*
X144754666Y-115261847D02*
X144678476Y-115299942D01*
X144678476Y-115299942D02*
X144373714Y-115299942D01*
X145478476Y-115642800D02*
X145402285Y-115680895D01*
X145402285Y-115680895D02*
X145249904Y-115680895D01*
X145249904Y-115680895D02*
X145173714Y-115642800D01*
X145173714Y-115642800D02*
X145135618Y-115566609D01*
X145135618Y-115566609D02*
X145135618Y-115261847D01*
X145135618Y-115261847D02*
X145173714Y-115185657D01*
X145173714Y-115185657D02*
X145249904Y-115147561D01*
X145249904Y-115147561D02*
X145402285Y-115147561D01*
X145402285Y-115147561D02*
X145478476Y-115185657D01*
X145478476Y-115185657D02*
X145516571Y-115261847D01*
X145516571Y-115261847D02*
X145516571Y-115338038D01*
X145516571Y-115338038D02*
X145135618Y-115414228D01*
X146202285Y-115680895D02*
X146202285Y-114880895D01*
X146202285Y-115642800D02*
X146126094Y-115680895D01*
X146126094Y-115680895D02*
X145973713Y-115680895D01*
X145973713Y-115680895D02*
X145897523Y-115642800D01*
X145897523Y-115642800D02*
X145859428Y-115604704D01*
X145859428Y-115604704D02*
X145821332Y-115528514D01*
X145821332Y-115528514D02*
X145821332Y-115299942D01*
X145821332Y-115299942D02*
X145859428Y-115223752D01*
X145859428Y-115223752D02*
X145897523Y-115185657D01*
X145897523Y-115185657D02*
X145973713Y-115147561D01*
X145973713Y-115147561D02*
X146126094Y-115147561D01*
X146126094Y-115147561D02*
X146202285Y-115185657D01*
D12*
%TO.C,R1*%
X147797000Y-115712000D02*
X147797000Y-111872000D01*
X149637000Y-115712000D02*
X149637000Y-111872000D01*
%TO.C,C1*%
X154129000Y-111794113D02*
X154129000Y-112294113D01*
X154379000Y-112044113D02*
X153879000Y-112044113D01*
X155234000Y-114598888D02*
X153694000Y-114598888D01*
X151614000Y-114598888D02*
X150074000Y-114598888D01*
X155234000Y-114638888D02*
X153694000Y-114638888D01*
X151614000Y-114638888D02*
X150074000Y-114638888D01*
X155233000Y-114678888D02*
X153694000Y-114678888D01*
X151614000Y-114678888D02*
X150075000Y-114678888D01*
X155232000Y-114718888D02*
X153694000Y-114718888D01*
X151614000Y-114718888D02*
X150076000Y-114718888D01*
X155230000Y-114758888D02*
X153694000Y-114758888D01*
X151614000Y-114758888D02*
X150078000Y-114758888D01*
X155227000Y-114798888D02*
X153694000Y-114798888D01*
X151614000Y-114798888D02*
X150081000Y-114798888D01*
X155223000Y-114838888D02*
X153694000Y-114838888D01*
X151614000Y-114838888D02*
X150085000Y-114838888D01*
X155219000Y-114878888D02*
X153694000Y-114878888D01*
X151614000Y-114878888D02*
X150089000Y-114878888D01*
X155215000Y-114918888D02*
X153694000Y-114918888D01*
X151614000Y-114918888D02*
X150093000Y-114918888D01*
X155210000Y-114958888D02*
X153694000Y-114958888D01*
X151614000Y-114958888D02*
X150098000Y-114958888D01*
X155204000Y-114998888D02*
X153694000Y-114998888D01*
X151614000Y-114998888D02*
X150104000Y-114998888D01*
X155197000Y-115038888D02*
X153694000Y-115038888D01*
X151614000Y-115038888D02*
X150111000Y-115038888D01*
X155190000Y-115078888D02*
X153694000Y-115078888D01*
X151614000Y-115078888D02*
X150118000Y-115078888D01*
X155182000Y-115118888D02*
X153694000Y-115118888D01*
X151614000Y-115118888D02*
X150126000Y-115118888D01*
X155174000Y-115158888D02*
X153694000Y-115158888D01*
X151614000Y-115158888D02*
X150134000Y-115158888D01*
X155165000Y-115198888D02*
X153694000Y-115198888D01*
X151614000Y-115198888D02*
X150143000Y-115198888D01*
X155155000Y-115238888D02*
X153694000Y-115238888D01*
X151614000Y-115238888D02*
X150153000Y-115238888D01*
X155145000Y-115278888D02*
X153694000Y-115278888D01*
X151614000Y-115278888D02*
X150163000Y-115278888D01*
X155134000Y-115319888D02*
X153694000Y-115319888D01*
X151614000Y-115319888D02*
X150174000Y-115319888D01*
X155122000Y-115359888D02*
X153694000Y-115359888D01*
X151614000Y-115359888D02*
X150186000Y-115359888D01*
X155109000Y-115399888D02*
X153694000Y-115399888D01*
X151614000Y-115399888D02*
X150199000Y-115399888D01*
X155096000Y-115439888D02*
X153694000Y-115439888D01*
X151614000Y-115439888D02*
X150212000Y-115439888D01*
X155082000Y-115479888D02*
X153694000Y-115479888D01*
X151614000Y-115479888D02*
X150226000Y-115479888D01*
X155068000Y-115519888D02*
X153694000Y-115519888D01*
X151614000Y-115519888D02*
X150240000Y-115519888D01*
X155052000Y-115559888D02*
X153694000Y-115559888D01*
X151614000Y-115559888D02*
X150256000Y-115559888D01*
X155036000Y-115599888D02*
X153694000Y-115599888D01*
X151614000Y-115599888D02*
X150272000Y-115599888D01*
X155019000Y-115639888D02*
X153694000Y-115639888D01*
X151614000Y-115639888D02*
X150289000Y-115639888D01*
X155002000Y-115679888D02*
X153694000Y-115679888D01*
X151614000Y-115679888D02*
X150306000Y-115679888D01*
X154983000Y-115719888D02*
X153694000Y-115719888D01*
X151614000Y-115719888D02*
X150325000Y-115719888D01*
X154964000Y-115759888D02*
X153694000Y-115759888D01*
X151614000Y-115759888D02*
X150344000Y-115759888D01*
X154944000Y-115799888D02*
X153694000Y-115799888D01*
X151614000Y-115799888D02*
X150364000Y-115799888D01*
X154922000Y-115839888D02*
X153694000Y-115839888D01*
X151614000Y-115839888D02*
X150386000Y-115839888D01*
X154901000Y-115879888D02*
X153694000Y-115879888D01*
X151614000Y-115879888D02*
X150407000Y-115879888D01*
X154878000Y-115919888D02*
X153694000Y-115919888D01*
X151614000Y-115919888D02*
X150430000Y-115919888D01*
X154854000Y-115959888D02*
X153694000Y-115959888D01*
X151614000Y-115959888D02*
X150454000Y-115959888D01*
X154829000Y-115999888D02*
X153694000Y-115999888D01*
X151614000Y-115999888D02*
X150479000Y-115999888D01*
X154803000Y-116039888D02*
X153694000Y-116039888D01*
X151614000Y-116039888D02*
X150505000Y-116039888D01*
X154776000Y-116079888D02*
X153694000Y-116079888D01*
X151614000Y-116079888D02*
X150532000Y-116079888D01*
X154749000Y-116119888D02*
X153694000Y-116119888D01*
X151614000Y-116119888D02*
X150559000Y-116119888D01*
X154719000Y-116159888D02*
X153694000Y-116159888D01*
X151614000Y-116159888D02*
X150589000Y-116159888D01*
X154689000Y-116199888D02*
X153694000Y-116199888D01*
X151614000Y-116199888D02*
X150619000Y-116199888D01*
X154658000Y-116239888D02*
X153694000Y-116239888D01*
X151614000Y-116239888D02*
X150650000Y-116239888D01*
X154625000Y-116279888D02*
X153694000Y-116279888D01*
X151614000Y-116279888D02*
X150683000Y-116279888D01*
X154591000Y-116319888D02*
X153694000Y-116319888D01*
X151614000Y-116319888D02*
X150717000Y-116319888D01*
X154555000Y-116359888D02*
X153694000Y-116359888D01*
X151614000Y-116359888D02*
X150753000Y-116359888D01*
X154518000Y-116399888D02*
X153694000Y-116399888D01*
X151614000Y-116399888D02*
X150790000Y-116399888D01*
X154480000Y-116439888D02*
X153694000Y-116439888D01*
X151614000Y-116439888D02*
X150828000Y-116439888D01*
X154439000Y-116479888D02*
X153694000Y-116479888D01*
X151614000Y-116479888D02*
X150869000Y-116479888D01*
X154397000Y-116519888D02*
X153694000Y-116519888D01*
X151614000Y-116519888D02*
X150911000Y-116519888D01*
X154353000Y-116559888D02*
X153694000Y-116559888D01*
X151614000Y-116559888D02*
X150955000Y-116559888D01*
X154307000Y-116599888D02*
X153694000Y-116599888D01*
X151614000Y-116599888D02*
X151001000Y-116599888D01*
X154259000Y-116639888D02*
X151049000Y-116639888D01*
X154208000Y-116679888D02*
X151100000Y-116679888D01*
X154154000Y-116719888D02*
X151154000Y-116719888D01*
X154097000Y-116759888D02*
X151211000Y-116759888D01*
X154037000Y-116799888D02*
X151271000Y-116799888D01*
X153973000Y-116839888D02*
X151335000Y-116839888D01*
X153905000Y-116879888D02*
X151403000Y-116879888D01*
X153832000Y-116919888D02*
X151476000Y-116919888D01*
X153752000Y-116959888D02*
X151556000Y-116959888D01*
X153665000Y-116999888D02*
X151643000Y-116999888D01*
X153569000Y-117039888D02*
X151739000Y-117039888D01*
X153459000Y-117079888D02*
X151849000Y-117079888D01*
X153331000Y-117119888D02*
X151977000Y-117119888D01*
X153172000Y-117159888D02*
X152136000Y-117159888D01*
X152938000Y-117199888D02*
X152370000Y-117199888D01*
X155274000Y-114598888D02*
G75*
G03*
X155274000Y-114598888I-2620000J0D01*
G01*
%TD*%
M02*
